<svg width="16" height="16" viewBox="0 0 16 16" fill="none" xmlns="http://www.w3.org/2000/svg">
<path d="M8.00034 5.99992C7.46991 5.99992 6.9612 6.21063 6.58613 6.5857C6.21105 6.96078 6.00034 7.46949 6.00034 7.99992C6.00034 8.53035 6.21105 9.03906 6.58613 9.41413C6.9612 9.7892 7.46991 9.99992 8.00034 9.99992C8.53077 9.99992 9.03948 9.7892 9.41455 9.41413C9.78963 9.03906 10.0003 8.53035 10.0003 7.99992C10.0003 7.46949 9.78963 6.96078 9.41455 6.5857C9.03948 6.21063 8.53077 5.99992 8.00034 5.99992ZM8.00034 4.66658C8.8844 4.66659 9.73224 5.01777 10.3574 5.6429C10.9825 6.26802 11.3337 7.11586 11.3337 7.99992C11.3337 8.88397 10.9825 9.73182 10.3574 10.3569C9.73224 10.9821 8.8844 11.3333 8.00034 11.3333C7.11629 11.3333 6.26844 10.9821 5.64332 10.3569C5.0182 9.73182 4.66701 8.88397 4.66701 7.99992C4.66701 7.11586 5.0182 6.26802 5.64332 5.6429C6.26844 5.01777 7.11629 4.66659 8.00034 4.66658ZM12.3337 4.49992C12.3337 4.72093 12.2459 4.93289 12.0896 5.08917C11.9333 5.24545 11.7214 5.33325 11.5003 5.33325C11.2793 5.33325 11.0674 5.24545 10.9111 5.08917C10.7548 4.93289 10.667 4.72093 10.667 4.49992C10.667 4.2789 10.7548 4.06694 10.9111 3.91066C11.0674 3.75438 11.2793 3.66659 11.5003 3.66659C11.7214 3.66659 11.9333 3.75438 12.0896 3.91066C12.2459 4.06694 12.3337 4.2789 12.3337 4.49992ZM8.00034 2.66659C6.35101 2.66659 6.08167 2.67125 5.31434 2.70525C4.79167 2.72992 4.44101 2.79992 4.11567 2.92659C3.84356 3.02683 3.59749 3.18701 3.39567 3.39525C3.18719 3.597 3.02678 3.84308 2.92634 4.11525C2.79967 4.44192 2.72967 4.79192 2.70567 5.31392C2.67101 6.04992 2.66634 6.30725 2.66634 7.99992C2.66634 9.64992 2.67101 9.91858 2.70501 10.6859C2.72967 11.2079 2.79967 11.5593 2.92567 11.8839C3.03901 12.1739 3.17234 12.3826 3.39367 12.6039C3.61834 12.8279 3.82701 12.9619 4.11367 13.0726C4.44301 13.1999 4.79367 13.2706 5.31367 13.2946C6.04967 13.3293 6.30701 13.3333 7.99967 13.3333C9.64967 13.3333 9.91834 13.3286 10.6857 13.2946C11.207 13.2699 11.5577 13.1999 11.8837 13.0739C12.1558 12.9737 12.4019 12.8135 12.6037 12.6053C12.8283 12.3813 12.9623 12.1726 13.073 11.8853C13.1997 11.5573 13.2703 11.2066 13.2943 10.6853C13.329 9.94992 13.333 9.69192 13.333 7.99992C13.333 6.35058 13.3283 6.08125 13.2943 5.31392C13.2697 4.79259 13.199 4.44058 13.073 4.11525C12.9728 3.84314 12.8126 3.59707 12.6043 3.39525C12.4026 3.18677 12.1565 3.02636 11.8843 2.92592C11.5577 2.79925 11.207 2.72925 10.6857 2.70525C9.95034 2.67059 9.69301 2.66659 7.99967 2.66659M7.99967 1.33325C9.81101 1.33325 10.037 1.33992 10.7483 1.37325C11.4577 1.40659 11.9417 1.51792 12.3663 1.68325C12.8063 1.85259 13.177 2.08192 13.5477 2.45192C13.8868 2.78507 14.1491 3.18823 14.3163 3.63325C14.481 4.05792 14.593 4.54192 14.6263 5.25192C14.6577 5.96258 14.6663 6.18858 14.6663 7.99992C14.6663 9.81125 14.6597 10.0373 14.6263 10.7479C14.593 11.4586 14.481 11.9413 14.3163 12.3666C14.1491 12.8116 13.8868 13.2148 13.5477 13.5479C13.2145 13.887 12.8114 14.1494 12.3663 14.3166C11.9417 14.4813 11.4577 14.5933 10.7483 14.6266C10.037 14.6579 9.81101 14.6666 7.99967 14.6666C6.18834 14.6666 5.96234 14.6599 5.25101 14.6266C4.54167 14.5933 4.05834 14.4813 3.63301 14.3166C3.18799 14.1494 2.78483 13.887 2.45167 13.5479C2.11255 13.2148 1.85022 12.8116 1.68301 12.3666C1.51767 11.9419 1.40634 11.4579 1.37301 10.7479C1.34101 10.0373 1.33301 9.81125 1.33301 7.99992C1.33301 6.18858 1.33967 5.96258 1.37301 5.25192C1.40634 4.54125 1.51767 4.05858 1.68301 3.63325C1.85022 3.18823 2.11255 2.78507 2.45167 2.45192C2.78483 2.11279 3.18799 1.85046 3.63301 1.68325C4.05767 1.51792 4.54101 1.40659 5.25101 1.37325C5.96301 1.34192 6.18901 1.33325 8.00034 1.33325" fill="#2E2E2E"/>
</svg>
