<svg width="20" height="20" viewBox="0 0 20 20" fill="none" xmlns="http://www.w3.org/2000/svg">
<path d="M16.25 3.125H3.75C3.40482 3.125 3.125 3.40482 3.125 3.75V16.25C3.125 16.5952 3.40482 16.875 3.75 16.875H16.25C16.5952 16.875 16.875 16.5952 16.875 16.25V3.75C16.875 3.40482 16.5952 3.125 16.25 3.125Z" stroke="#333333" stroke-width="1.5" stroke-linecap="round" stroke-linejoin="round"/>
<path d="M13.75 1.875V4.375" stroke="#333333" stroke-width="1.5" stroke-linecap="round" stroke-linejoin="round"/>
<path d="M6.25 1.875V4.375" stroke="#282828" stroke-width="1.5" stroke-linecap="round" stroke-linejoin="round"/>
<path d="M3.125 6.875H16.875" stroke="#282828" stroke-width="1.5" stroke-linecap="round" stroke-linejoin="round"/>
<path d="M7.1875 10H9.375L8.125 11.5625C8.33053 11.5625 8.53289 11.6132 8.71416 11.7101C8.89543 11.8069 9.05002 11.947 9.16423 12.1179C9.27845 12.2888 9.34876 12.4852 9.36895 12.6897C9.38915 12.8942 9.35859 13.1006 9.28 13.2905C9.2014 13.4804 9.07719 13.648 8.91836 13.7785C8.75953 13.9089 8.57099 13.9982 8.36942 14.0384C8.16786 14.0786 7.9595 14.0684 7.76278 14.0089C7.56607 13.9493 7.38708 13.8422 7.24166 13.6969" stroke="#282828" stroke-width="1.5" stroke-linecap="round" stroke-linejoin="round"/>
<path d="M11.25 10.9375L12.5 10V14.0625" stroke="#282828" stroke-width="1.5" stroke-linecap="round" stroke-linejoin="round"/>
</svg>
