<svg width="16" height="16" viewBox="0 0 16 16" fill="none" xmlns="http://www.w3.org/2000/svg">
<g clip-path="url(#clip0_434_3132)">
<path fill-rule="evenodd" clip-rule="evenodd" d="M6.49341 5.01249C7.11575 4.68957 7.82405 4.57111 8.51759 4.67396C9.22503 4.77886 9.87997 5.10851 10.3857 5.61421C10.8914 6.11991 11.221 6.77485 11.3259 7.48229C11.4288 8.17583 11.3103 8.88414 10.9874 9.50647C10.6645 10.1288 10.1535 10.6335 9.52728 10.9487C8.90102 11.2639 8.1913 11.3736 7.49908 11.2622C6.80686 11.1508 6.16739 10.824 5.67163 10.3283C5.17586 9.83249 4.84904 9.19302 4.73765 8.5008C4.62626 7.80858 4.73598 7.09887 5.0512 6.4726C5.36642 5.84633 5.87108 5.33541 6.49341 5.01249ZM8.32202 5.99287C7.90589 5.93116 7.48091 6.00224 7.10751 6.19599C6.73411 6.38974 6.43131 6.69629 6.24218 7.07205C6.05305 7.44781 5.98722 7.87364 6.05405 8.28897C6.12088 8.7043 6.31697 9.08799 6.61443 9.38545C6.9119 9.68291 7.29558 9.879 7.71091 9.94583C8.12624 10.0127 8.55207 9.94683 8.92783 9.7577C9.30359 9.56857 9.61014 9.26577 9.80389 8.89237C9.99764 8.51898 10.0687 8.09399 10.007 7.67787C9.94407 7.25341 9.74628 6.86044 9.44286 6.55702C9.13944 6.2536 8.74648 6.05581 8.32202 5.99287Z" fill="#474747"/>
<path d="M11.6665 3.66675C11.2983 3.66675 10.9998 3.96522 10.9998 4.33341C10.9998 4.7016 11.2983 5.00008 11.6665 5.00008H11.6732C12.0414 5.00008 12.3398 4.7016 12.3398 4.33341C12.3398 3.96522 12.0414 3.66675 11.6732 3.66675H11.6665Z" fill="#474747"/>
<path fill-rule="evenodd" clip-rule="evenodd" d="M0.666504 4.66675C0.666504 2.45761 2.45736 0.666748 4.6665 0.666748H11.3332C13.5423 0.666748 15.3332 2.45761 15.3332 4.66675V11.3334C15.3332 13.5426 13.5423 15.3334 11.3332 15.3334H4.6665C2.45736 15.3334 0.666504 13.5426 0.666504 11.3334V4.66675ZM4.6665 2.00008C3.19374 2.00008 1.99984 3.19399 1.99984 4.66675V11.3334C1.99984 12.8062 3.19374 14.0001 4.6665 14.0001H11.3332C12.8059 14.0001 13.9998 12.8062 13.9998 11.3334V4.66675C13.9998 3.19399 12.8059 2.00008 11.3332 2.00008H4.6665Z" fill="#474747"/>
</g>
<defs>
<clipPath id="clip0_434_3132">
<rect width="16" height="16" fill="white"/>
</clipPath>
</defs>
</svg>
