<svg width="16" height="16" viewBox="0 0 16 16" fill="none" xmlns="http://www.w3.org/2000/svg">
<path d="M7.64654 4.46445L8.88398 3.22702C9.1393 2.97146 9.44246 2.76871 9.77616 2.63035C10.1099 2.492 10.4675 2.42074 10.8288 2.42065C11.19 2.42057 11.5477 2.49166 11.8815 2.62986C12.2153 2.76807 12.5185 2.97067 12.774 3.22611C13.0294 3.48155 13.232 3.78481 13.3702 4.11857C13.5084 4.45233 13.5795 4.81005 13.5794 5.17129C13.5793 5.53254 13.5081 5.89022 13.3697 6.22392C13.2314 6.55762 13.0286 6.86078 12.7731 7.1161L11.0053 8.88387C10.7499 9.13923 10.4468 9.3418 10.1131 9.48C9.77949 9.6182 9.42189 9.68933 9.06075 9.68933C8.69962 9.68933 8.34202 9.6182 8.00837 9.48C7.67473 9.3418 7.37157 9.13923 7.11621 8.88387" stroke="#333333" stroke-width="1.5" stroke-linecap="round" stroke-linejoin="round"/>
<path d="M8.35354 11.5355L7.1161 12.773C6.86078 13.0285 6.55762 13.2313 6.22392 13.3696C5.89022 13.508 5.53254 13.5793 5.17129 13.5793C4.81005 13.5794 4.45233 13.5083 4.11857 13.3701C3.78481 13.2319 3.48155 13.0293 3.22611 12.7739C2.97067 12.5184 2.76807 12.2152 2.62986 11.8814C2.49166 11.5477 2.42057 11.1899 2.42065 10.8287C2.42074 10.4675 2.492 10.1098 2.63035 9.77608C2.76871 9.44238 2.97146 9.13921 3.22702 8.88389L4.99478 7.11613C5.25014 6.86076 5.5533 6.6582 5.88695 6.52C6.22059 6.3818 6.57819 6.31067 6.93933 6.31067C7.30046 6.31067 7.65806 6.3818 7.99171 6.52C8.32535 6.6582 8.62851 6.86076 8.88387 7.11613" stroke="#333333" stroke-width="1.5" stroke-linecap="round" stroke-linejoin="round"/>
</svg>
