<svg width="134" height="32" viewBox="0 0 134 32" fill="none" xmlns="http://www.w3.org/2000/svg">
<path d="M6.94381 0V20.3866C6.94381 22.7133 5.23041 23.3077 3.47133 23.3077C1.71225 23.3077 0 22.7077 0 20.3866V0H6.94381Z" fill="#202020"/>
<path d="M24.4111 0V32H3.48828C10.4903 32 16.7203 28.5891 16.7203 21.4831V0H24.4111Z" fill="#202020"/>
<path d="M17.4688 0H31.6259L36.1642 5.66794L40.7012 0H54.8584V31.9989H41.9257V17.3701L36.1642 23.4964L30.4003 17.3701V31.9989H17.4688V0Z" fill="#202020"/>
<path d="M66.4488 0V9.11303C66.4488 9.56444 66.664 9.79085 67.0945 9.79224H67.8842C68.3146 9.79224 68.5298 9.56583 68.5298 9.11303V0H74.1172V9.33387C74.1172 12.4382 72.6457 13.9904 69.7026 13.9904H65.2721C62.3277 13.9904 60.8561 12.4382 60.8574 9.33387V0H66.4488Z" fill="#202020"/>
<path d="M76.1094 0H84.4807C87.4225 0 88.8934 1.55217 88.8934 4.65652V5.47531C88.8934 7.03374 88.5143 8.17339 87.7561 8.89427L89.2527 13.9904H83.6653L82.5873 9.93182H81.6396V13.9946H76.1114L76.1094 0ZM82.8518 6.13578C83.2809 6.13578 83.4955 5.90868 83.4955 5.45448V4.87528C83.4955 4.42247 83.2809 4.19607 82.8518 4.19607H81.6396V6.13578H82.8518Z" fill="#202020"/>
<path d="M90.6919 0H99.1027C100.44 0 101.434 0.369467 102.086 1.1084C102.737 1.84733 103.063 2.8703 103.061 4.17732C103.087 5.0393 102.882 5.89142 102.469 6.6358C102.817 6.95689 103.088 7.3612 103.259 7.81504C103.436 8.29929 103.523 8.81492 103.515 9.33387C103.528 10.0634 103.452 10.7917 103.288 11.5007C103.167 12.0383 102.927 12.5379 102.587 12.9591C102.259 13.3408 101.835 13.6179 101.365 13.7591C100.777 13.9306 100.167 14.0113 99.5568 13.9987H90.6919V0ZM97.4738 5.62533C97.9029 5.62533 98.1175 5.39892 98.1175 4.94612V4.66484C98.1175 4.21343 97.9029 3.98704 97.4738 3.98565H96.2221V5.62533H97.4738ZM97.7581 9.98182C98.1872 9.98182 98.4017 9.75542 98.4017 9.30262V9.0026C98.4017 8.54979 98.1872 8.3234 97.7581 8.3234H96.2221V9.99017L97.7581 9.98182Z" fill="#202020"/>
<path d="M108.155 0H114.898L119.387 13.9946H113.478L113.042 12.0757H110.011L109.579 13.9946H103.669L108.155 0ZM112.284 8.75051L111.527 5.33364L110.769 8.75051H112.284Z" fill="#202020"/>
<path d="M120.373 0H126.716L128.459 4.21691V0H133.857V13.9904H127.928L125.77 8.67342V13.9904H120.373V0Z" fill="#202020"/>
<path d="M60.8574 18H66.8591L68.7821 20.4782L70.7051 18H76.7068V31.9958H71.2245V25.5971L68.7821 28.2754L66.3397 25.5971V31.9958H60.8574V18Z" fill="#202020"/>
<path d="M78.8242 18H89.9813V22.1977H84.499V23.0773H89.1351V26.8769H84.499V27.796H90.3663V31.9958H78.8242V18Z" fill="#202020"/>
<path d="M91.828 18H100.771C103.759 18 105.254 19.5528 105.255 22.6583V27.3375C105.255 30.4431 103.76 31.9958 100.771 31.9958H91.828V18ZM98.9245 27.796C99.3616 27.796 99.5802 27.5696 99.5802 27.1166V22.8772C99.5802 22.4242 99.3616 22.1977 98.9245 22.1977H97.5028V27.796H98.9245Z" fill="#202020"/>
<path d="M112.891 18H107.216V31.9958H112.891V18Z" fill="#202020"/>
<path d="M118.45 18H125.298L129.857 32H123.856L123.413 30.0804H120.335L119.893 32H113.892L118.45 18ZM122.643 26.7539L121.875 23.3357L121.105 26.7539H122.643Z" fill="#202020"/>
</svg>
